<svg width="857" height="373" viewBox="0 0 857 373" fill="none" xmlns="http://www.w3.org/2000/svg">
<path d="M115.88 242.854V254.05H112.985C111.566 254.05 110.616 254.291 110.133 254.773C109.651 255.256 109.41 256.164 109.41 257.498V274.355C109.41 277.307 109.481 279.705 109.622 281.55C109.793 283.394 110.204 285.14 110.857 286.786C111.51 288.432 112.56 289.737 114.007 290.702C115.455 291.667 117.413 292.15 119.882 292.15C122.72 292.15 124.806 291.383 126.14 289.851C127.502 288.29 128.353 286.36 128.694 284.061C129.034 281.734 129.205 278.84 129.205 275.377V257.498C129.205 255.965 128.892 255.015 128.268 254.646C127.644 254.248 126.736 254.05 125.544 254.05H122.649V242.854H148.914V254.05H146.02C144.629 254.05 143.678 254.291 143.167 254.773C142.685 255.256 142.444 256.164 142.444 257.498V283.508C142.444 289.666 141.025 294.378 138.187 297.641C135.377 300.905 132.199 303.005 128.651 303.942C125.132 304.906 121.684 305.389 118.307 305.389C109.452 305.389 102.797 303.998 98.3415 301.217C93.8858 298.407 91.0478 295.186 89.8275 291.554C88.6355 287.921 88.0396 283.962 88.0396 279.677V257.498C88.0396 256.136 87.7983 255.227 87.3159 254.773C86.8334 254.291 85.8543 254.05 84.3785 254.05H81.5264V242.854H115.88Z" fill="white"/>
<path d="M162.848 242.854H188.39L212.017 276.186V258.903C212.045 258.562 212.059 258.264 212.059 258.009C212.087 257.753 212.102 257.441 212.102 257.072C212.102 256.05 211.875 255.298 211.421 254.816C210.966 254.305 210.002 254.05 208.526 254.05H205.716V242.854H231.641V254.05H228.746C227.242 254.05 226.277 254.362 225.852 254.986C225.454 255.611 225.256 256.448 225.256 257.498V303.899H205.716L182.431 271.205V287.85C182.459 288.049 182.487 288.276 182.516 288.531C182.544 288.787 182.558 289.17 182.558 289.681C182.615 290.731 182.828 291.511 183.197 292.022C183.566 292.504 184.445 292.746 185.836 292.746H188.646V303.899H162.848V292.746H165.701C167.233 292.746 168.198 292.433 168.595 291.809C168.993 291.185 169.191 290.333 169.191 289.255V257.498C169.191 256.448 168.993 255.611 168.595 254.986C168.226 254.362 167.261 254.05 165.701 254.05H162.848V242.854Z" fill="white"/>
<path d="M245.618 303.899V292.746H248.129C249.52 292.746 250.386 292.476 250.726 291.937C251.095 291.398 251.28 290.504 251.28 289.255V257.498C251.28 256.249 251.109 255.369 250.769 254.859C250.428 254.319 249.548 254.05 248.129 254.05H245.618V242.854H278.397V254.05H275.757C274.508 254.05 273.671 254.291 273.246 254.773C272.848 255.227 272.65 256.136 272.65 257.498V289.255C272.65 290.589 272.862 291.511 273.288 292.022C273.742 292.504 274.565 292.746 275.757 292.746H278.397V303.899H245.618Z" fill="white"/>
<path d="M304.846 303.899V292.746H308.762C310.181 292.746 311.146 292.504 311.657 292.022C312.168 291.511 312.423 290.589 312.423 289.255V256.136H308.762C306.492 256.136 305.059 256.334 304.463 256.732C303.895 257.101 303.498 257.881 303.271 259.073L302.122 264.224H290.883L291.479 242.854H354.695L355.291 264.224H344.053L342.946 259.073C342.691 257.824 342.265 257.03 341.669 256.689C341.101 256.32 339.682 256.136 337.412 256.136H333.751V289.255C333.751 290.362 333.95 291.227 334.347 291.852C334.744 292.448 335.738 292.746 337.327 292.746H341.286V303.899H304.846Z" fill="white"/>
<path d="M404.516 242.854H430.824V254.05H428.653C427.659 254.05 426.893 254.192 426.354 254.475C425.815 254.759 425.29 255.313 424.779 256.136C424.268 256.93 423.36 258.605 422.054 261.159L409.922 285.424V290.191C409.922 290.929 410.05 291.54 410.305 292.022C410.589 292.504 411.185 292.746 412.093 292.746H416.648V303.899H381.57V292.746H384.891C387.332 292.746 388.552 292.079 388.552 290.745V285.679L373.993 260.393C372.744 258.207 371.623 256.604 370.63 255.582C369.637 254.561 368.345 254.05 366.756 254.05H365.82V242.854H399.876V254.05H398.428C396.725 254.05 395.874 254.419 395.874 255.156C395.874 255.582 396.044 256.136 396.385 256.817L402.174 267.289H402.685L408.262 256.561C408.602 255.88 408.773 255.355 408.773 254.986C408.773 254.362 408.077 254.05 406.687 254.05H404.516V242.854Z" fill="white"/>
<path d="M521.525 279.506H547.578C547.521 282.94 546.712 286.204 545.151 289.298C543.59 292.391 541.306 295.158 538.297 297.599C535.317 300.039 531.699 301.955 527.442 303.346C523.213 304.708 518.502 305.389 513.309 305.389C508.172 305.389 503.787 304.765 500.155 303.516C496.522 302.239 493.684 300.82 491.641 299.259C489.597 297.67 487.937 296.109 486.66 294.576C482.119 288.985 479.849 281.919 479.849 273.376C479.849 269.715 480.402 266.111 481.509 262.564C482.644 259.016 484.503 255.682 487.086 252.56C489.129 250.062 491.541 247.976 494.323 246.302C497.104 244.628 500.07 243.379 503.22 242.556C506.398 241.733 509.619 241.321 512.883 241.321C518.758 241.321 524.193 242.442 529.187 244.684C534.211 246.898 538.198 249.92 541.149 253.752C544.101 257.555 545.662 261.712 545.832 266.225H521.44C521.44 263.245 520.886 260.563 519.779 258.179C518.701 255.767 516.573 254.561 513.394 254.561C511.89 254.561 510.613 254.83 509.563 255.369C508.513 255.909 507.59 257.342 506.796 259.669C506.029 261.968 505.646 265.458 505.646 270.141V276.356C505.646 281.096 506.115 284.913 507.051 287.808C508.016 290.702 510.13 292.15 513.394 292.15C515.551 292.15 517.438 291.27 519.056 289.51C520.702 287.722 521.525 284.388 521.525 279.506Z" fill="white"/>
<path d="M561.128 303.899V292.746H564.023C565.442 292.746 566.407 292.504 566.918 292.022C567.429 291.511 567.684 290.589 567.684 289.255V257.498C567.684 256.164 567.429 255.256 566.918 254.773C566.435 254.291 565.471 254.05 564.023 254.05H561.128V242.854H595.823V254.05H592.077C590.771 254.05 589.934 254.234 589.565 254.603C589.224 254.944 589.054 255.398 589.054 255.965V290.66H597.738C598.476 290.66 599.044 290.674 599.441 290.702C599.839 290.702 600.264 290.716 600.718 290.745C602.45 290.745 603.712 290.248 604.507 289.255C605.33 288.233 606.04 285.991 606.636 282.529H617.789V303.899H561.128Z" fill="white"/>
<path d="M667.183 242.854V254.05H664.289C662.87 254.05 661.919 254.291 661.437 254.773C660.954 255.256 660.713 256.164 660.713 257.498V274.355C660.713 277.307 660.784 279.705 660.926 281.55C661.096 283.394 661.508 285.14 662.16 286.786C662.813 288.432 663.863 289.737 665.31 290.702C666.758 291.667 668.716 292.15 671.185 292.15C674.023 292.15 676.109 291.383 677.443 289.851C678.805 288.29 679.656 286.36 679.997 284.061C680.338 281.734 680.508 278.84 680.508 275.377V257.498C680.508 255.965 680.196 255.015 679.571 254.646C678.947 254.248 678.039 254.05 676.847 254.05H673.952V242.854H700.218V254.05H697.323C695.932 254.05 694.982 254.291 694.471 254.773C693.988 255.256 693.747 256.164 693.747 257.498V283.508C693.747 289.666 692.328 294.378 689.49 297.641C686.68 300.905 683.502 303.005 679.954 303.942C676.435 304.906 672.987 305.389 669.61 305.389C660.755 305.389 654.1 303.998 649.645 301.217C645.189 298.407 642.351 295.186 641.131 291.554C639.939 287.921 639.343 283.962 639.343 279.677V257.498C639.343 256.136 639.102 255.227 638.619 254.773C638.137 254.291 637.158 254.05 635.682 254.05H632.83V242.854H667.183Z" fill="white"/>
<path d="M714.152 242.854H742.29C748.193 242.854 752.876 242.982 756.338 243.237C759.829 243.464 763.064 244.06 766.044 245.025C769.053 245.961 771.394 247.494 773.068 249.622C774.771 251.751 775.622 254.646 775.622 258.307C775.622 260.634 774.984 262.819 773.707 264.862C772.458 266.906 770.713 268.538 768.471 269.758C766.229 270.95 763.717 271.546 760.936 271.546H759.744V272.355H761.66C764.185 272.355 766.697 272.908 769.194 274.015C771.72 275.122 773.778 276.81 775.367 279.081C776.985 281.323 777.794 284.076 777.794 287.339C777.794 291.256 776.885 294.363 775.069 296.662C773.253 298.932 770.699 300.579 767.406 301.6C764.114 302.622 760.354 303.26 756.125 303.516C751.925 303.771 746.618 303.899 740.204 303.899H714.152V292.746H717.004C718.593 292.746 719.586 292.476 719.984 291.937C720.381 291.398 720.58 290.504 720.58 289.255V257.498C720.58 256.249 720.381 255.369 719.984 254.859C719.615 254.319 718.621 254.05 717.004 254.05H714.152V242.854ZM741.95 266.948H746.462C749.187 266.948 750.975 266.352 751.826 265.16C752.677 263.94 753.103 262.677 753.103 261.372C753.103 259.243 752.337 257.838 750.804 257.157C749.3 256.476 747.214 256.136 744.547 256.136H741.95V266.948ZM741.95 290.66H746.377C748.051 290.66 749.683 290.333 751.273 289.681C752.89 289.028 753.699 287.524 753.699 285.168C753.699 283.465 753.273 282.174 752.422 281.294C751.57 280.386 750.535 279.804 749.314 279.549C748.122 279.265 746.661 279.123 744.93 279.123H741.95V290.66Z" fill="white"/>
<path d="M268.154 111.473H1V362.435H134.888" stroke="white"/>
<path d="M588.846 115.16H856V366.123H722.112" stroke="white"/>
<path d="M175.124 370.136C173.854 370.136 172.845 369.896 172.097 369.416C171.363 368.936 170.848 368.273 170.551 367.426C170.255 366.565 170.106 365.569 170.106 364.44V358.279C170.106 357.093 170.255 356.077 170.551 355.23C170.848 354.369 171.363 353.706 172.097 353.24C172.845 352.774 173.854 352.541 175.124 352.541C176.352 352.541 177.312 352.746 178.004 353.155C178.71 353.564 179.204 354.143 179.486 354.891C179.783 355.639 179.931 356.507 179.931 357.496V358.935H176.543V357.326C176.543 356.931 176.522 356.564 176.48 356.225C176.437 355.872 176.317 355.59 176.12 355.378C175.936 355.152 175.611 355.039 175.146 355.039C174.68 355.039 174.341 355.152 174.129 355.378C173.918 355.604 173.783 355.9 173.727 356.267C173.671 356.62 173.642 357.016 173.642 357.453V365.245C173.642 365.725 173.678 366.148 173.748 366.515C173.833 366.868 173.981 367.143 174.193 367.341C174.419 367.524 174.736 367.616 175.146 367.616C175.597 367.616 175.915 367.51 176.098 367.299C176.296 367.073 176.416 366.776 176.458 366.409C176.515 366.042 176.543 365.654 176.543 365.245V363.572H179.931V364.991C179.931 365.993 179.79 366.882 179.507 367.659C179.225 368.421 178.738 369.028 178.046 369.479C177.355 369.917 176.381 370.136 175.124 370.136Z" fill="white"/>
<path d="M191.083 370.136C189.827 370.136 188.832 369.91 188.098 369.458C187.364 369.007 186.835 368.364 186.51 367.532C186.199 366.685 186.044 365.675 186.044 364.504V358.11C186.044 356.938 186.199 355.936 186.51 355.103C186.835 354.27 187.364 353.635 188.098 353.197C188.832 352.76 189.827 352.541 191.083 352.541C192.354 352.541 193.356 352.767 194.09 353.219C194.838 353.656 195.367 354.291 195.678 355.124C196.002 355.943 196.165 356.938 196.165 358.11V364.504C196.165 365.675 196.002 366.685 195.678 367.532C195.367 368.364 194.838 369.007 194.09 369.458C193.356 369.91 192.354 370.136 191.083 370.136ZM191.083 367.616C191.535 367.616 191.867 367.517 192.078 367.32C192.29 367.108 192.431 366.833 192.502 366.494C192.572 366.141 192.608 365.767 192.608 365.372V357.263C192.608 356.867 192.572 356.5 192.502 356.162C192.431 355.823 192.29 355.555 192.078 355.357C191.867 355.145 191.535 355.039 191.083 355.039C190.66 355.039 190.342 355.145 190.13 355.357C189.919 355.555 189.778 355.823 189.707 356.162C189.636 356.5 189.601 356.867 189.601 357.263V365.372C189.601 365.767 189.629 366.141 189.686 366.494C189.756 366.833 189.898 367.108 190.109 367.32C190.321 367.517 190.646 367.616 191.083 367.616Z" fill="white"/>
<path d="M202.732 369.903V352.753H205.167L208.978 361.688V352.753H211.858V369.903H209.529L205.717 360.417V369.903H202.732Z" fill="white"/>
<path d="M218.69 369.903V352.753H221.125L224.936 361.688V352.753H227.816V369.903H225.487L221.676 360.417V369.903H218.69Z" fill="white"/>
<path d="M234.649 369.903V352.753H242.123V355.166H238.142V359.719H241.212V362.154H238.142V367.532H242.165V369.903H234.649Z" fill="white"/>
<path d="M252.931 370.136C251.661 370.136 250.652 369.896 249.903 369.416C249.169 368.936 248.654 368.273 248.358 367.426C248.061 366.565 247.913 365.569 247.913 364.44V358.279C247.913 357.093 248.061 356.077 248.358 355.23C248.654 354.369 249.169 353.706 249.903 353.24C250.652 352.774 251.661 352.541 252.931 352.541C254.159 352.541 255.119 352.746 255.811 353.155C256.516 353.564 257.011 354.143 257.293 354.891C257.589 355.639 257.737 356.507 257.737 357.496V358.935H254.35V357.326C254.35 356.931 254.329 356.564 254.286 356.225C254.244 355.872 254.124 355.59 253.926 355.378C253.743 355.152 253.418 355.039 252.952 355.039C252.487 355.039 252.148 355.152 251.936 355.378C251.724 355.604 251.59 355.9 251.534 356.267C251.477 356.62 251.449 357.016 251.449 357.453V365.245C251.449 365.725 251.484 366.148 251.555 366.515C251.64 366.868 251.788 367.143 252 367.341C252.225 367.524 252.543 367.616 252.952 367.616C253.404 367.616 253.722 367.51 253.905 367.299C254.103 367.073 254.223 366.776 254.265 366.409C254.322 366.042 254.35 365.654 254.35 365.245V363.572H257.737V364.991C257.737 365.993 257.596 366.882 257.314 367.659C257.032 368.421 256.545 369.028 255.853 369.479C255.161 369.917 254.187 370.136 252.931 370.136Z" fill="white"/>
<path d="M265.714 369.903V355.357H263.067V352.753H271.833V355.357H269.229V369.903H265.714Z" fill="white"/>
<path d="M277.666 369.903V352.753H281.138V369.903H277.666Z" fill="white"/>
<path d="M287.999 369.903V352.753H290.434L294.245 361.688V352.753H297.125V369.903H294.796L290.984 360.417V369.903H287.999Z" fill="white"/>
<path d="M308.34 370.157C307.183 370.157 306.265 369.917 305.588 369.437C304.91 368.943 304.423 368.251 304.127 367.362C303.844 366.459 303.703 365.414 303.703 364.229V358.491C303.703 357.263 303.851 356.204 304.148 355.315C304.444 354.425 304.96 353.741 305.694 353.261C306.442 352.781 307.451 352.541 308.721 352.541C309.949 352.541 310.916 352.746 311.622 353.155C312.342 353.564 312.857 354.143 313.168 354.891C313.478 355.639 313.633 356.529 313.633 357.559V358.554H310.225V357.347C310.225 356.896 310.196 356.5 310.14 356.162C310.083 355.809 309.949 355.533 309.738 355.336C309.54 355.138 309.215 355.039 308.764 355.039C308.298 355.039 307.959 355.159 307.747 355.399C307.536 355.639 307.401 355.95 307.345 356.331C307.289 356.698 307.26 357.093 307.26 357.517V365.118C307.26 365.598 307.303 366.028 307.387 366.409C307.472 366.79 307.627 367.087 307.853 367.299C308.093 367.51 308.432 367.616 308.869 367.616C309.307 367.616 309.646 367.503 309.886 367.277C310.126 367.052 310.288 366.748 310.373 366.367C310.472 365.972 310.521 365.527 310.521 365.033V363.212H308.848V361.095H313.676V369.903H311.389L311.177 368.357C310.951 368.88 310.613 369.31 310.161 369.649C309.709 369.988 309.102 370.157 308.34 370.157Z" fill="white"/>
<path d="M329.879 369.903V352.753H333.372V359.803H336.4V352.753H339.894V369.903H336.4V362.302H333.372V369.903H329.879Z" fill="white"/>
<path d="M346.767 369.903V352.753H354.241V355.166H350.26V359.719H353.33V362.154H350.26V367.532H354.283V369.903H346.767Z" fill="white"/>
<path d="M359.438 369.903L362.762 352.753H366.637L369.94 369.903H366.7L366.086 366.134H363.376L362.72 369.903H359.438ZM363.694 363.996H365.748L364.71 357.072L363.694 363.996Z" fill="white"/>
<path d="M375.913 369.903V352.753H380.359C381.516 352.753 382.504 352.887 383.323 353.155C384.156 353.409 384.791 353.868 385.229 354.531C385.68 355.195 385.906 356.112 385.906 357.284C385.906 357.99 385.843 358.618 385.716 359.168C385.603 359.705 385.391 360.177 385.08 360.587C384.784 360.982 384.361 361.3 383.81 361.54L386.181 369.903H382.603L380.634 362.132H379.406V369.903H375.913ZM379.406 360.057H380.422C380.987 360.057 381.432 359.966 381.756 359.782C382.081 359.599 382.307 359.323 382.434 358.956C382.575 358.575 382.646 358.11 382.646 357.559C382.646 356.769 382.497 356.169 382.201 355.759C381.919 355.336 381.382 355.124 380.592 355.124H379.406V360.057Z" fill="white"/>
<path d="M393.976 369.903V355.357H391.33V352.753H400.095V355.357H397.491V369.903H393.976Z" fill="white"/>
<path d="M410.332 370.136C409.273 370.136 408.391 369.945 407.685 369.564C406.98 369.169 406.443 368.583 406.076 367.807C405.723 367.016 405.519 366.014 405.462 364.8L408.469 364.292C408.497 364.998 408.567 365.591 408.68 366.071C408.807 366.536 408.991 366.889 409.231 367.129C409.485 367.355 409.796 367.468 410.163 367.468C410.614 367.468 410.918 367.327 411.073 367.045C411.242 366.762 411.327 366.438 411.327 366.071C411.327 365.351 411.151 364.751 410.798 364.271C410.459 363.777 410.007 363.283 409.443 362.789L407.664 361.243C407.029 360.707 406.507 360.1 406.097 359.422C405.702 358.745 405.504 357.912 405.504 356.924C405.504 355.512 405.914 354.432 406.732 353.684C407.565 352.922 408.702 352.541 410.141 352.541C411.002 352.541 411.708 352.682 412.259 352.964C412.809 353.247 413.233 353.628 413.529 354.108C413.84 354.574 414.051 355.089 414.164 355.653C414.291 356.204 414.369 356.754 414.397 357.305L411.412 357.75C411.383 357.227 411.334 356.769 411.264 356.373C411.207 355.978 411.08 355.668 410.882 355.442C410.699 355.216 410.417 355.103 410.035 355.103C409.626 355.103 409.323 355.258 409.125 355.569C408.927 355.865 408.829 356.197 408.829 356.564C408.829 357.171 408.963 357.672 409.231 358.067C409.513 358.448 409.894 358.851 410.374 359.274L412.11 360.798C412.83 361.42 413.444 362.132 413.952 362.937C414.475 363.727 414.736 364.708 414.736 365.88C414.736 366.685 414.552 367.412 414.185 368.061C413.818 368.71 413.303 369.218 412.64 369.585C411.99 369.952 411.221 370.136 410.332 370.136Z" fill="white"/>
<path d="M420.916 372.825L420.662 371.745C421.029 371.632 421.361 371.434 421.657 371.152C421.953 370.884 422.102 370.468 422.102 369.903H420.429V366.812H423.499V369.543C423.485 370.531 423.266 371.3 422.843 371.851C422.419 372.401 421.777 372.726 420.916 372.825Z" fill="white"/>
<path d="M444.133 370.136C442.863 370.136 441.854 369.896 441.106 369.416C440.372 368.936 439.857 368.273 439.56 367.426C439.264 366.565 439.115 365.569 439.115 364.44V358.279C439.115 357.093 439.264 356.077 439.56 355.23C439.857 354.369 440.372 353.706 441.106 353.24C441.854 352.774 442.863 352.541 444.133 352.541C445.362 352.541 446.321 352.746 447.013 353.155C447.719 353.564 448.213 354.143 448.495 354.891C448.792 355.639 448.94 356.507 448.94 357.496V358.935H445.552V357.326C445.552 356.931 445.531 356.564 445.489 356.225C445.446 355.872 445.326 355.59 445.129 355.378C444.945 355.152 444.62 355.039 444.155 355.039C443.689 355.039 443.35 355.152 443.138 355.378C442.927 355.604 442.793 355.9 442.736 356.267C442.68 356.62 442.651 357.016 442.651 357.453V365.245C442.651 365.725 442.687 366.148 442.757 366.515C442.842 366.868 442.99 367.143 443.202 367.341C443.428 367.524 443.745 367.616 444.155 367.616C444.606 367.616 444.924 367.51 445.107 367.299C445.305 367.073 445.425 366.776 445.467 366.409C445.524 366.042 445.552 365.654 445.552 365.245V363.572H448.94V364.991C448.94 365.993 448.799 366.882 448.516 367.659C448.234 368.421 447.747 369.028 447.055 369.479C446.364 369.917 445.39 370.136 444.133 370.136Z" fill="white"/>
<path d="M455.307 369.903V352.753H459.754C460.911 352.753 461.899 352.887 462.718 353.155C463.551 353.409 464.186 353.868 464.623 354.531C465.075 355.195 465.301 356.112 465.301 357.284C465.301 357.99 465.237 358.618 465.11 359.168C464.997 359.705 464.786 360.177 464.475 360.587C464.179 360.982 463.755 361.3 463.205 361.54L465.576 369.903H461.998L460.029 362.132H458.801V369.903H455.307ZM458.801 360.057H459.817C460.382 360.057 460.826 359.966 461.151 359.782C461.476 359.599 461.701 359.323 461.828 358.956C461.97 358.575 462.04 358.11 462.04 357.559C462.04 356.769 461.892 356.169 461.596 355.759C461.313 355.336 460.777 355.124 459.986 355.124H458.801V360.057Z" fill="white"/>
<path d="M471.886 369.903V352.753H479.36V355.166H475.379V359.719H478.449V362.154H475.379V367.532H479.402V369.903H471.886Z" fill="white"/>
<path d="M484.557 369.903L487.882 352.753H491.756L495.059 369.903H491.82L491.206 366.134H488.496L487.839 369.903H484.557ZM488.813 363.996H490.867L489.829 357.072L488.813 363.996Z" fill="white"/>
<path d="M501.773 369.903V355.357H499.126V352.753H507.892V355.357H505.287V369.903H501.773Z" fill="white"/>
<path d="M513.724 369.903V352.753H517.197V369.903H513.724Z" fill="white"/>
<path d="M524.057 369.903V352.753H526.492L530.304 361.688V352.753H533.183V369.903H530.854L527.043 360.417V369.903H524.057Z" fill="white"/>
<path d="M544.399 370.157C543.241 370.157 542.324 369.917 541.646 369.437C540.969 368.943 540.482 368.251 540.185 367.362C539.903 366.459 539.762 365.414 539.762 364.229V358.491C539.762 357.263 539.91 356.204 540.206 355.315C540.503 354.425 541.018 353.741 541.752 353.261C542.5 352.781 543.509 352.541 544.78 352.541C546.008 352.541 546.975 352.746 547.68 353.155C548.4 353.564 548.916 354.143 549.226 354.891C549.537 355.639 549.692 356.529 549.692 357.559V358.554H546.283V357.347C546.283 356.896 546.255 356.5 546.198 356.162C546.142 355.809 546.008 355.533 545.796 355.336C545.598 355.138 545.274 355.039 544.822 355.039C544.356 355.039 544.018 355.159 543.806 355.399C543.594 355.639 543.46 355.95 543.404 356.331C543.347 356.698 543.319 357.093 543.319 357.517V365.118C543.319 365.598 543.361 366.028 543.446 366.409C543.531 366.79 543.686 367.087 543.912 367.299C544.152 367.51 544.49 367.616 544.928 367.616C545.366 367.616 545.704 367.503 545.944 367.277C546.184 367.052 546.347 366.748 546.431 366.367C546.53 365.972 546.579 365.527 546.579 365.033V363.212H544.907V361.095H549.734V369.903H547.448L547.236 368.357C547.01 368.88 546.671 369.31 546.22 369.649C545.768 369.988 545.161 370.157 544.399 370.157Z" fill="white"/>
<path d="M565.831 369.903L566.128 352.753H569.833L571.95 363.572L574.216 352.753H577.794L578.091 369.903H575.55L575.275 358.279L573.094 369.903H570.913L568.626 358.194L568.393 369.903H565.831Z" fill="white"/>
<path d="M584.851 369.903V352.753H592.325V355.166H588.345V359.719H591.415V362.154H588.345V367.532H592.368V369.903H584.851Z" fill="white"/>
<path d="M598.306 369.903L598.603 352.753H602.308L604.425 363.572L606.691 352.753H610.269L610.565 369.903H608.025L607.749 358.279L605.569 369.903H603.388L601.101 358.194L600.868 369.903H598.306Z" fill="white"/>
<path d="M622.111 370.136C620.855 370.136 619.86 369.91 619.126 369.458C618.392 369.007 617.863 368.364 617.538 367.532C617.227 366.685 617.072 365.675 617.072 364.504V358.11C617.072 356.938 617.227 355.936 617.538 355.103C617.863 354.27 618.392 353.635 619.126 353.197C619.86 352.76 620.855 352.541 622.111 352.541C623.382 352.541 624.384 352.767 625.118 353.219C625.866 353.656 626.395 354.291 626.706 355.124C627.031 355.943 627.193 356.938 627.193 358.11V364.504C627.193 365.675 627.031 366.685 626.706 367.532C626.395 368.364 625.866 369.007 625.118 369.458C624.384 369.91 623.382 370.136 622.111 370.136ZM622.111 367.616C622.563 367.616 622.895 367.517 623.107 367.32C623.318 367.108 623.459 366.833 623.53 366.494C623.601 366.141 623.636 365.767 623.636 365.372V357.263C623.636 356.867 623.601 356.5 623.53 356.162C623.459 355.823 623.318 355.555 623.107 355.357C622.895 355.145 622.563 355.039 622.111 355.039C621.688 355.039 621.37 355.145 621.159 355.357C620.947 355.555 620.806 355.823 620.735 356.162C620.665 356.5 620.629 356.867 620.629 357.263V365.372C620.629 365.767 620.658 366.141 620.714 366.494C620.785 366.833 620.926 367.108 621.137 367.32C621.349 367.517 621.674 367.616 622.111 367.616Z" fill="white"/>
<path d="M633.76 369.903V352.753H638.207C639.364 352.753 640.352 352.887 641.171 353.155C642.004 353.409 642.639 353.868 643.076 354.531C643.528 355.195 643.754 356.112 643.754 357.284C643.754 357.99 643.69 358.618 643.563 359.168C643.45 359.705 643.239 360.177 642.928 360.587C642.632 360.982 642.208 361.3 641.658 361.54L644.029 369.903H640.451L638.482 362.132H637.254V369.903H633.76ZM637.254 360.057H638.27C638.835 360.057 639.279 359.966 639.604 359.782C639.929 359.599 640.154 359.323 640.281 358.956C640.423 358.575 640.493 358.11 640.493 357.559C640.493 356.769 640.345 356.169 640.049 355.759C639.766 355.336 639.23 355.124 638.439 355.124H637.254V360.057Z" fill="white"/>
<path d="M650.381 369.903V352.753H653.854V369.903H650.381Z" fill="white"/>
<path d="M660.714 369.903V352.753H668.189V355.166H664.208V359.719H667.278V362.154H664.208V367.532H668.231V369.903H660.714Z" fill="white"/>
<path d="M678.679 370.136C677.621 370.136 676.738 369.945 676.033 369.564C675.327 369.169 674.79 368.583 674.423 367.807C674.071 367.016 673.866 366.014 673.809 364.8L676.816 364.292C676.844 364.998 676.915 365.591 677.028 366.071C677.155 366.536 677.338 366.889 677.578 367.129C677.832 367.355 678.143 367.468 678.51 367.468C678.962 367.468 679.265 367.327 679.42 367.045C679.59 366.762 679.674 366.438 679.674 366.071C679.674 365.351 679.498 364.751 679.145 364.271C678.806 363.777 678.355 363.283 677.79 362.789L676.011 361.243C675.376 360.707 674.854 360.1 674.445 359.422C674.049 358.745 673.852 357.912 673.852 356.924C673.852 355.512 674.261 354.432 675.08 353.684C675.913 352.922 677.049 352.541 678.489 352.541C679.35 352.541 680.056 352.682 680.606 352.964C681.157 353.247 681.58 353.628 681.876 354.108C682.187 354.574 682.399 355.089 682.512 355.653C682.639 356.204 682.716 356.754 682.745 357.305L679.759 357.75C679.731 357.227 679.681 356.769 679.611 356.373C679.554 355.978 679.427 355.668 679.23 355.442C679.046 355.216 678.764 355.103 678.383 355.103C677.974 355.103 677.67 355.258 677.472 355.569C677.275 355.865 677.176 356.197 677.176 356.564C677.176 357.171 677.31 357.672 677.578 358.067C677.861 358.448 678.242 358.851 678.722 359.274L680.458 360.798C681.178 361.42 681.792 362.132 682.3 362.937C682.822 363.727 683.083 364.708 683.083 365.88C683.083 366.685 682.9 367.412 682.533 368.061C682.166 368.71 681.651 369.218 680.987 369.585C680.338 369.952 679.569 370.136 678.679 370.136Z" fill="white"/>
<path d="M449.216 1.3853C448.775 2.41595 448.628 4.62449 448.922 6.24409C449.363 9.04158 450.687 9.18881 468.926 9.63052L488.34 9.92499L487.605 0.354643C454.658 -0.381538 449.952 0.0601718 449.216 1.3853ZM457.453 16.6979C455.835 17.434 455.394 20.3788 455.688 31.4215L455.982 45.2617C470.396 60.8687 473.779 66.022 475.544 71.4697C476.868 75.5923 478.927 79.5677 479.81 80.0094C480.839 80.4511 482.604 80.0094 483.634 78.9787C485.105 77.2119 484.811 74.4144 481.722 63.6662C479.221 54.6848 478.486 49.9732 479.516 48.9426C480.496 47.961 481.673 48.2064 483.045 49.6787C484.075 50.8566 486.281 55.5682 487.752 59.9853C489.811 65.8747 490.694 73.9727 491.282 90.1687L492.018 112.254C497.754 112.99 499.813 112.254 500.401 111.223C500.99 110.193 501.578 97.825 501.578 83.8375V58.5129C490.988 39.6667 486.723 32.5994 485.105 30.5381C483.634 28.4767 482.016 24.6486 481.722 22.1456C481.281 19.4953 480.839 17.2868 480.545 17.1396C480.398 17.1396 475.544 16.8451 469.955 16.5506C464.366 16.2561 458.63 16.2561 457.453 16.6979ZM364.791 47.0285C356.26 52.0345 347.288 56.4516 344.935 57.0406L340.522 57.924L339.787 82.0707H369.203C384.647 68.2305 390.383 64.5496 394.502 63.3717C398.032 62.3411 401.709 60.7215 402.591 59.6908C404.062 58.2184 404.062 57.335 402.591 55.2737C400.973 53.0652 399.944 53.2124 389.059 56.4516C382.588 58.3657 376.116 59.9853 374.645 59.9853C373.322 59.9853 372.145 58.8074 372.145 57.4823C372.145 55.421 375.087 53.9486 384.206 51.1511C394.354 48.2064 399.502 47.4702 415.387 47.4702C430.537 47.4702 434.655 47.0285 435.832 45.2617C436.567 44.0838 436.861 41.8752 436.42 40.5501C435.538 38.1943 432.743 37.8999 407.739 37.8999H380.234L364.791 47.0285ZM323.902 51.5928C323.019 52.6235 322.872 61.1632 323.46 71.4697L324.343 89.5798L333.168 88.6963V50.5622C326.99 49.9732 324.637 50.7094 323.902 51.5928ZM361.114 103.714C360.378 104.156 359.937 117.113 360.084 132.425L360.378 160.106C368.762 174.388 372.88 181.161 374.792 184.4C376.852 187.639 378.911 192.351 379.499 194.706L380.382 199.123L404.503 199.86L404.65 171.149C392.001 157.161 387.147 149.947 385.088 144.941C382.735 139.051 380.97 136.548 379.058 136.548C377.734 136.548 376.263 137.284 375.822 138.02C375.381 138.904 376.704 144.793 378.764 151.272C380.823 157.75 382.441 164.081 382.441 165.259C382.441 166.437 381.117 167.468 379.499 167.468C377.146 167.468 375.969 165.406 373.322 156.867C370.527 147.738 370.086 143.174 370.38 126.242C370.674 111.812 370.233 105.923 368.909 104.451C367.879 103.42 365.967 102.537 364.644 102.684C363.32 102.684 361.849 103.125 361.114 103.714ZM529.818 145.824L530.259 165.259H539.084L539.82 126.242H529.377L529.818 145.824ZM495.548 133.456C494.371 133.898 489.223 138.02 484.222 142.585C478.78 147.444 472.308 151.566 468.19 152.891C462.895 154.658 461.13 156.13 460.836 158.486C460.542 160.842 461.277 161.725 463.778 161.725C465.543 161.578 471.279 160.4 476.574 158.781C481.869 157.161 487.311 155.836 488.782 155.836C490.4 155.836 491.135 156.719 490.988 158.339C490.694 160.106 487.311 162.02 480.251 164.376C471.279 167.468 467.602 167.909 450.834 167.762C440.391 167.615 430.537 167.762 429.213 168.204C427.595 168.793 426.566 170.412 426.566 172.768C426.566 174.682 427.595 176.744 428.772 177.185C429.949 177.48 442.745 177.921 457.159 177.921H483.193C507.167 163.345 516.286 158.781 518.934 158.192L523.64 157.308L522.905 133.014C503.49 132.573 496.871 132.867 495.548 133.456ZM372.88 207.663C372.292 208.694 372.145 210.902 372.439 212.522C372.88 215.172 374.057 215.467 392.001 215.467H411.122V206.632C378.322 205.896 373.469 206.191 372.88 207.663Z" fill="white"/>
<path d="M439.811 76.5173C435.831 78.583 427.726 86.5622 427.726 86.5622L422.121 82.2031C419.932 80.7439 418.705 79.8447 416.516 78.3856C416.516 78.3856 414.937 74.7651 411.535 74.0265C408.207 73.3043 407.389 74.008 404.062 74.7302C400.659 75.4688 394.974 76.5173 394.974 76.5173C394.974 76.5173 388.622 81.4654 386.256 85.8584C384.906 88.3644 384.416 89.9375 383.765 92.7085C382.817 96.7401 382.686 99.1787 383.142 103.295C383.616 107.578 386.187 110.179 389.116 113.34C405.93 131.48 428.971 151.327 428.971 151.327C428.971 151.327 474.431 110.307 474.431 99.6397C474.431 96.1577 474.731 94.1838 473.808 90.9214C473.009 88.0937 471.655 87.185 470.694 85.8584C469.734 84.5318 469.185 80.6902 465.966 78.3856C464.372 77.2442 463.39 76.7093 461.607 75.8946C459.508 74.936 458.267 74.4668 456.002 74.0264C452.66 73.3766 450.64 73.4534 447.284 74.0264C444.251 74.5441 442.541 75.1003 439.811 76.5173Z" fill="url(#paint0_linear_19_14)"/>
<path fill-rule="evenodd" clip-rule="evenodd" d="M405.665 72.2548C407.772 72.2161 408.911 72.3129 410.296 72.603C411.321 72.7964 412.802 73.2025 413.58 73.4733C414.358 73.7634 415.782 74.3824 416.712 74.8659C417.642 75.3301 419.407 76.3938 420.603 77.2062C421.798 78.0185 423.64 79.3724 424.683 80.2234C425.727 81.0744 427.113 82.2929 428.954 84.111L430.15 82.9312C430.795 82.2929 432.181 81.0744 433.225 80.2234C434.268 79.3724 436.11 78.0185 437.305 77.2062C438.501 76.3938 440.266 75.3301 441.196 74.8465C442.126 74.3824 443.683 73.7248 444.613 73.396C445.543 73.0865 447.099 72.6803 448.029 72.4869C449.415 72.2355 450.402 72.1968 453.154 72.2742C455.469 72.3515 457.178 72.5256 458.468 72.7964C459.512 73.0091 461.049 73.4153 461.885 73.6861C462.72 73.9569 464.181 74.5758 465.111 75.0593C466.041 75.5428 467.294 76.2585 467.863 76.6646C468.433 77.0708 469.534 77.9798 470.312 78.7148C471.09 79.4498 472.229 80.7456 472.836 81.5966C473.463 82.4476 474.374 84.0143 474.886 85.078C475.399 86.1418 476.025 87.7471 476.272 88.6562C476.537 89.5652 476.917 91.3833 477.145 92.7178C477.391 94.2844 477.543 96.0058 477.543 97.5918C477.543 99.2938 477.429 100.686 477.164 102.04C476.955 103.143 476.556 104.767 476.291 105.676C476.025 106.585 475.304 108.365 474.696 109.641C474.089 110.918 473.007 112.871 472.286 113.993C471.565 115.115 470.274 116.894 469.42 117.958C468.585 119.022 466.914 120.917 465.738 122.155C464.561 123.393 456.285 131.574 447.365 140.316C438.444 149.059 430.871 156.389 430.567 156.582C430.207 156.815 429.637 156.931 428.954 156.931C428.271 156.931 427.72 156.815 427.341 156.582C427.018 156.37 418.819 148.42 409.12 138.885C396.802 126.797 390.842 120.801 389.399 119.08C388.279 117.726 386.666 115.56 385.831 114.283C384.996 113.007 384.047 111.44 383.724 110.802C383.42 110.164 382.794 108.694 382.358 107.514C381.902 106.334 381.371 104.69 381.162 103.839C380.953 102.988 380.687 101.769 380.554 101.131C380.403 100.377 380.365 98.9457 380.422 96.9729C380.479 95.3289 380.649 93.1433 380.839 92.1376C381.01 91.1318 381.371 89.5652 381.636 88.6562C381.883 87.7471 382.509 86.1418 383.022 85.078C383.534 84.0143 384.445 82.4476 385.072 81.5966C385.679 80.7456 386.818 79.4498 387.596 78.7148C388.374 77.9798 389.475 77.0708 390.045 76.6646C390.614 76.2585 391.848 75.5428 392.797 75.0593C393.727 74.5758 395.188 73.9569 396.023 73.6861C396.858 73.396 398.434 73.0091 399.535 72.7964C400.636 72.5836 401.831 72.3902 402.192 72.3515C402.553 72.3129 404.109 72.2548 405.646 72.2548H405.665ZM400.028 79.8946C399.307 80.0687 397.978 80.5135 397.086 80.881C396.194 81.2485 394.998 81.8481 394.429 82.2155C393.86 82.6024 393.005 83.2213 392.531 83.6081C392.075 83.9949 391.316 84.8266 390.861 85.4649C390.405 86.1031 389.779 87.1282 389.475 87.7471C389.171 88.3467 388.716 89.5265 388.45 90.3582C388.185 91.1705 387.843 92.6404 387.691 93.5882C387.539 94.5359 387.406 96.3926 387.406 97.7078C387.406 99.0424 387.52 100.628 387.691 101.383C387.843 102.098 388.166 103.297 388.412 104.032C388.659 104.767 389.171 106.044 389.551 106.837C389.931 107.63 390.823 109.197 391.544 110.318C392.284 111.44 393.632 113.258 394.562 114.38C395.549 115.579 402.913 122.948 412.555 132.425C421.533 141.226 428.916 148.44 428.973 148.44C429.03 148.44 436.413 141.226 445.391 132.425C455.261 122.735 462.378 115.598 463.384 114.38C464.295 113.258 465.605 111.517 466.269 110.512C466.933 109.506 467.863 107.881 468.319 106.934C468.774 105.986 469.382 104.497 469.648 103.646C469.913 102.795 470.236 101.537 470.369 100.841C470.521 100.009 470.559 98.5589 470.483 96.586C470.407 94.2264 470.274 93.182 469.894 91.654C469.61 90.5903 468.964 88.8496 468.452 87.7858C467.901 86.6447 467.085 85.3875 466.516 84.7106C465.965 84.0916 464.827 83.1246 463.991 82.5443C463.156 81.9834 461.79 81.2485 460.955 80.9197C460.119 80.5715 458.848 80.1267 458.108 79.9333C457.367 79.7399 455.583 79.4691 454.122 79.353C452.015 79.1596 451.161 79.179 449.946 79.3724C449.111 79.5078 447.782 79.8366 447.004 80.088C446.226 80.3588 444.897 80.939 444.062 81.3645C443.227 81.79 441.993 82.4863 441.31 82.9505C440.627 83.3954 439.184 84.4785 438.083 85.3682C436.983 86.2579 434.895 88.1726 433.433 89.6426C431.972 91.1125 430.548 92.389 430.245 92.5051C429.96 92.6211 429.391 92.7178 428.973 92.7178C428.555 92.7178 427.986 92.6211 427.701 92.5051C427.398 92.389 425.974 91.1125 424.513 89.6426C423.051 88.1726 420.963 86.2579 419.862 85.3682C418.762 84.4785 417.319 83.3954 416.636 82.9505C415.953 82.4863 414.719 81.79 413.884 81.3645C413.049 80.939 411.815 80.3975 411.132 80.1654C410.448 79.9139 409.272 79.6045 408.531 79.4498C407.772 79.295 406.614 79.1983 405.969 79.1983C405.305 79.2177 404.014 79.295 403.065 79.3917C402.116 79.4884 400.749 79.7012 400.028 79.8946Z" fill="url(#paint1_linear_19_14)"/>
<path d="M456.993 84.0646C480.034 87.8008 461.308 112.364 432.017 141.906" stroke="url(#paint2_linear_19_14)" stroke-width="0.1"/>
<g opacity="0.7" filter="url(#filter0_f_19_14)">
<circle cx="402.197" cy="92.7877" r="10.5865" fill="#C5E7AA"/>
</g>
<g opacity="0.7" filter="url(#filter1_f_19_14)">
<circle cx="414.029" cy="110.849" r="6.22736" fill="#C5E7AA"/>
</g>
<defs>
<filter id="filter0_f_19_14" x="391.41" y="82.0012" width="21.5729" height="21.573" filterUnits="userSpaceOnUse" color-interpolation-filters="sRGB">
<feFlood flood-opacity="0" result="BackgroundImageFix"/>
<feBlend mode="normal" in="SourceGraphic" in2="BackgroundImageFix" result="shape"/>
<feGaussianBlur stdDeviation="0.1" result="effect1_foregroundBlur_19_14"/>
</filter>
<filter id="filter1_f_19_14" x="407.602" y="104.422" width="12.8546" height="12.8547" filterUnits="userSpaceOnUse" color-interpolation-filters="sRGB">
<feFlood flood-opacity="0" result="BackgroundImageFix"/>
<feBlend mode="normal" in="SourceGraphic" in2="BackgroundImageFix" result="shape"/>
<feGaussianBlur stdDeviation="0.1" result="effect1_foregroundBlur_19_14"/>
</filter>
<linearGradient id="paint0_linear_19_14" x1="478.167" y1="113.963" x2="382.889" y2="98.3941" gradientUnits="userSpaceOnUse">
<stop stop-color="#57A42E"/>
<stop offset="0.515265" stop-color="#5EAD2F"/>
<stop offset="0.560585" stop-color="#8FC456"/>
<stop offset="1" stop-color="#86BC4E"/>
</linearGradient>
<linearGradient id="paint1_linear_19_14" x1="470.07" y1="85.3159" x2="396.588" y2="122.68" gradientUnits="userSpaceOnUse">
<stop stop-color="#59A72F"/>
<stop offset="1" stop-color="#8DC255"/>
</linearGradient>
<linearGradient id="paint2_linear_19_14" x1="457.154" y1="85.234" x2="435.191" y2="140.84" gradientUnits="userSpaceOnUse">
<stop stop-color="#5BA92F"/>
<stop offset="0.224222" stop-color="#296A05"/>
<stop offset="0.735344" stop-color="#469719"/>
<stop offset="1" stop-color="#5EAC2F"/>
</linearGradient>
</defs>
</svg>
