<svg width="112" height="112" viewBox="0 0 112 112" fill="none" xmlns="http://www.w3.org/2000/svg">
<path d="M38.33 0.00317383H34.4971V3.83614H38.33V0.00317383Z" fill="white"/>
<path d="M42.1621 0.00317383H38.3291V3.83614H42.1621V0.00317383Z" fill="white"/>
<path d="M53.6621 0.00317383H49.8291V3.83614H53.6621V0.00317383Z" fill="white"/>
<path d="M65.1601 0.00317383H61.3271V3.83614H65.1601V0.00317383Z" fill="white"/>
<path d="M76.6601 0.00317383H72.8271V3.83614H76.6601V0.00317383Z" fill="white"/>
<path d="M80.4921 0.00317383H76.6592V3.83614H80.4921V0.00317383Z" fill="white"/>
<path d="M38.33 3.83521H34.4971V7.66817H38.33V3.83521Z" fill="white"/>
<path d="M49.8295 3.83521H45.9966V7.66817H49.8295V3.83521Z" fill="white"/>
<path d="M53.6621 3.83521H49.8291V7.66817H53.6621V3.83521Z" fill="white"/>
<path d="M57.4951 3.83521H53.6621V7.66817H57.4951V3.83521Z" fill="white"/>
<path d="M61.3281 3.83521H57.4951V7.66817H61.3281V3.83521Z" fill="white"/>
<path d="M68.9946 3.83521H65.1616V7.66817H68.9946V3.83521Z" fill="white"/>
<path d="M38.33 7.66724H34.4971V11.5002H38.33V7.66724Z" fill="white"/>
<path d="M42.1621 7.66724H38.3291V11.5002H42.1621V7.66724Z" fill="white"/>
<path d="M53.6621 7.66724H49.8291V11.5002H53.6621V7.66724Z" fill="white"/>
<path d="M65.1601 7.66724H61.3271V11.5002H65.1601V7.66724Z" fill="white"/>
<path d="M68.9946 7.66724H65.1616V11.5002H68.9946V7.66724Z" fill="white"/>
<path d="M72.8271 7.66724H68.9941V11.5002H72.8271V7.66724Z" fill="white"/>
<path d="M80.4921 7.66724H76.6592V11.5002H80.4921V7.66724Z" fill="white"/>
<path d="M42.1621 11.5012H38.3291V15.3342H42.1621V11.5012Z" fill="white"/>
<path d="M45.9965 11.5012H42.1636V15.3342H45.9965V11.5012Z" fill="white"/>
<path d="M49.8295 11.5012H45.9966V15.3342H49.8295V11.5012Z" fill="white"/>
<path d="M53.6621 11.5012H49.8291V15.3342H53.6621V11.5012Z" fill="white"/>
<path d="M57.4951 11.5012H53.6621V15.3342H57.4951V11.5012Z" fill="white"/>
<path d="M61.3281 11.5012H57.4951V15.3342H61.3281V11.5012Z" fill="white"/>
<path d="M68.9951 11.5012H65.1621V15.3342H68.9951V11.5012Z" fill="white"/>
<path d="M72.8271 11.5012H68.9941V15.3342H72.8271V11.5012Z" fill="white"/>
<path d="M76.6601 11.5012H72.8271V15.3342H76.6601V11.5012Z" fill="white"/>
<path d="M38.33 15.3411H34.4971V19.174H38.33V15.3411Z" fill="white"/>
<path d="M45.9965 15.3411H42.1636V19.174H45.9965V15.3411Z" fill="white"/>
<path d="M49.8295 15.3411H45.9966V19.174H49.8295V15.3411Z" fill="white"/>
<path d="M53.6621 15.3411H49.8291V19.174H53.6621V15.3411Z" fill="white"/>
<path d="M57.4951 15.3411H53.6621V19.174H57.4951V15.3411Z" fill="white"/>
<path d="M65.1606 15.3411H61.3276V19.174H65.1606V15.3411Z" fill="white"/>
<path d="M68.9951 15.3411H65.1621V19.174H68.9951V15.3411Z" fill="white"/>
<path d="M72.8271 15.3411H68.9941V19.174H72.8271V15.3411Z" fill="white"/>
<path d="M76.6601 15.3411H72.8271V19.174H76.6601V15.3411Z" fill="white"/>
<path d="M34.498 19.1711H30.665V23.0041H34.498V19.1711Z" fill="white"/>
<path d="M42.1621 19.1711H38.3291V23.0041H42.1621V19.1711Z" fill="white"/>
<path d="M49.8295 19.1711H45.9966V23.0041H49.8295V19.1711Z" fill="white"/>
<path d="M53.6621 19.1711H49.8291V23.0041H53.6621V19.1711Z" fill="white"/>
<path d="M57.4951 19.1711H53.6621V23.0041H57.4951V19.1711Z" fill="white"/>
<path d="M68.9951 19.1711H65.1621V23.0041H68.9951V19.1711Z" fill="white"/>
<path d="M76.6601 19.1711H72.8271V23.0041H76.6601V19.1711Z" fill="white"/>
<path d="M34.498 23.0032H30.665V26.8361H34.498V23.0032Z" fill="white"/>
<path d="M42.1621 23.0032H38.3291V26.8361H42.1621V23.0032Z" fill="white"/>
<path d="M49.8295 23.0032H45.9966V26.8361H49.8295V23.0032Z" fill="white"/>
<path d="M57.4951 23.0032H53.6621V26.8361H57.4951V23.0032Z" fill="white"/>
<path d="M65.1606 23.0032H61.3276V26.8361H65.1606V23.0032Z" fill="white"/>
<path d="M72.8271 23.0032H68.9941V26.8361H72.8271V23.0032Z" fill="white"/>
<path d="M80.4921 23.0032H76.6592V26.8361H80.4921V23.0032Z" fill="white"/>
<path d="M38.33 26.8352H34.4971V30.6682H38.33V26.8352Z" fill="white"/>
<path d="M49.8295 26.8352H45.9966V30.6682H49.8295V26.8352Z" fill="white"/>
<path d="M57.4951 26.8352H53.6621V30.6682H57.4951V26.8352Z" fill="white"/>
<path d="M68.9951 26.8352H65.1621V30.6682H68.9951V26.8352Z" fill="white"/>
<path d="M76.6601 26.8352H72.8271V30.6682H76.6601V26.8352Z" fill="white"/>
<path d="M80.4921 26.8352H76.6592V30.6682H80.4921V26.8352Z" fill="white"/>
<path d="M3.83297 30.6672H0L0 34.5002H3.83297V30.6672Z" fill="white"/>
<path d="M15.331 30.6672H11.498V34.5002H15.331V30.6672Z" fill="white"/>
<path d="M22.998 30.6672H19.165V34.5002H22.998V30.6672Z" fill="white"/>
<path d="M26.831 30.6672H22.998V34.5002H26.831V30.6672Z" fill="white"/>
<path d="M34.498 30.6672H30.665V34.5002H34.498V30.6672Z" fill="white"/>
<path d="M42.1621 30.6672H38.3291V34.5002H42.1621V30.6672Z" fill="white"/>
<path d="M49.8295 30.6672H45.9966V34.5002H49.8295V30.6672Z" fill="white"/>
<path d="M61.3281 30.6672H57.4951V34.5002H61.3281V30.6672Z" fill="white"/>
<path d="M72.8271 30.6672H68.9941V34.5002H72.8271V30.6672Z" fill="white"/>
<path d="M84.3247 30.6672H80.4917V34.5002H84.3247V30.6672Z" fill="white"/>
<path d="M91.9921 30.6672H88.1592V34.5002H91.9921V30.6672Z" fill="white"/>
<path d="M3.83297 34.5012H0L0 38.3342H3.83297V34.5012Z" fill="white"/>
<path d="M7.665 34.5012H3.83203V38.3342H7.665V34.5012Z" fill="white"/>
<path d="M11.4995 34.5012H7.6665V38.3342H11.4995V34.5012Z" fill="white"/>
<path d="M15.3305 34.5012H11.4976V38.3342H15.3305V34.5012Z" fill="white"/>
<path d="M19.165 34.5012H15.332V38.3342H19.165V34.5012Z" fill="white"/>
<path d="M34.498 34.5012H30.665V38.3342H34.498V34.5012Z" fill="white"/>
<path d="M38.33 34.5012H34.4971V38.3342H38.33V34.5012Z" fill="white"/>
<path d="M45.9961 34.5012H42.1631V38.3342H45.9961V34.5012Z" fill="white"/>
<path d="M57.4951 34.5012H53.6621V38.3342H57.4951V34.5012Z" fill="white"/>
<path d="M61.3281 34.5012H57.4951V38.3342H61.3281V34.5012Z" fill="white"/>
<path d="M68.9946 34.5012H65.1616V38.3342H68.9946V34.5012Z" fill="white"/>
<path d="M72.8271 34.5012H68.9941V38.3342H72.8271V34.5012Z" fill="white"/>
<path d="M76.6601 34.5012H72.8271V38.3342H76.6601V34.5012Z" fill="white"/>
<path d="M80.4921 34.5012H76.6592V38.3342H80.4921V34.5012Z" fill="white"/>
<path d="M84.3242 34.5012H80.4912V38.3342H84.3242V34.5012Z" fill="white"/>
<path d="M88.1587 34.5012H84.3257V38.3342H88.1587V34.5012Z" fill="white"/>
<path d="M91.9921 34.5012H88.1592V38.3342H91.9921V34.5012Z" fill="white"/>
<path d="M99.6572 34.5012H95.8242V38.3342H99.6572V34.5012Z" fill="white"/>
<path d="M111.157 34.5012H107.324V38.3342H111.157V34.5012Z" fill="white"/>
<path d="M7.665 38.3333H3.83203V42.1662H7.665V38.3333Z" fill="white"/>
<path d="M19.165 38.3333H15.332V42.1662H19.165V38.3333Z" fill="white"/>
<path d="M26.831 38.3333H22.998V42.1662H26.831V38.3333Z" fill="white"/>
<path d="M30.6635 38.3333H26.8306V42.1662H30.6635V38.3333Z" fill="white"/>
<path d="M45.9961 38.3333H42.1631V42.1662H45.9961V38.3333Z" fill="white"/>
<path d="M49.8295 38.3333H45.9966V42.1662H49.8295V38.3333Z" fill="white"/>
<path d="M65.1601 38.3333H61.3271V42.1662H65.1601V38.3333Z" fill="white"/>
<path d="M72.8271 38.3333H68.9941V42.1662H72.8271V38.3333Z" fill="white"/>
<path d="M76.6601 38.3333H72.8271V42.1662H76.6601V38.3333Z" fill="white"/>
<path d="M84.3242 38.3333H80.4912V42.1662H84.3242V38.3333Z" fill="white"/>
<path d="M88.1587 38.3333H84.3257V42.1662H88.1587V38.3333Z" fill="white"/>
<path d="M91.9921 38.3333H88.1592V42.1662H91.9921V38.3333Z" fill="white"/>
<path d="M95.8242 38.3333H91.9912V42.1662H95.8242V38.3333Z" fill="white"/>
<path d="M99.6572 38.3333H95.8242V42.1662H99.6572V38.3333Z" fill="white"/>
<path d="M103.491 38.3333H99.6577V42.1662H103.491V38.3333Z" fill="white"/>
<path d="M107.323 38.3333H103.49V42.1662H107.323V38.3333Z" fill="white"/>
<path d="M3.83297 42.1653H0L0 45.9982H3.83297V42.1653Z" fill="white"/>
<path d="M11.4995 42.1653H7.6665V45.9982H11.4995V42.1653Z" fill="white"/>
<path d="M19.165 42.1653H15.332V45.9982H19.165V42.1653Z" fill="white"/>
<path d="M34.498 42.1653H30.665V45.9982H34.498V42.1653Z" fill="white"/>
<path d="M38.33 42.1653H34.4971V45.9982H38.33V42.1653Z" fill="white"/>
<path d="M49.8295 42.1653H45.9966V45.9982H49.8295V42.1653Z" fill="white"/>
<path d="M57.4951 42.1653H53.6621V45.9982H57.4951V42.1653Z" fill="white"/>
<path d="M61.3281 42.1653H57.4951V45.9982H61.3281V42.1653Z" fill="white"/>
<path d="M88.1587 42.1653H84.3257V45.9982H88.1587V42.1653Z" fill="white"/>
<path d="M91.9921 42.1653H88.1592V45.9982H91.9921V42.1653Z" fill="white"/>
<path d="M103.491 42.1653H99.6577V45.9982H103.491V42.1653Z" fill="white"/>
<path d="M107.323 42.1653H103.49V45.9982H107.323V42.1653Z" fill="white"/>
<path d="M3.83297 45.9973H0L0 49.8303H3.83297V45.9973Z" fill="white"/>
<path d="M7.665 45.9973H3.83203V49.8303H7.665V45.9973Z" fill="white"/>
<path d="M15.331 45.9973H11.498V49.8303H15.331V45.9973Z" fill="white"/>
<path d="M19.165 45.9973H15.332V49.8303H19.165V45.9973Z" fill="white"/>
<path d="M26.831 45.9973H22.998V49.8303H26.831V45.9973Z" fill="white"/>
<path d="M34.498 45.9973H30.665V49.8303H34.498V45.9973Z" fill="white"/>
<path d="M38.33 45.9973H34.4971V49.8303H38.33V45.9973Z" fill="white"/>
<path d="M42.1621 45.9973H38.3291V49.8303H42.1621V45.9973Z" fill="white"/>
<path d="M49.8295 45.9973H45.9966V49.8303H49.8295V45.9973Z" fill="white"/>
<path d="M65.1606 45.9973H61.3276V49.8303H65.1606V45.9973Z" fill="white"/>
<path d="M68.9951 45.9973H65.1621V49.8303H68.9951V45.9973Z" fill="white"/>
<path d="M72.8271 45.9973H68.9941V49.8303H72.8271V45.9973Z" fill="white"/>
<path d="M76.6601 45.9973H72.8271V49.8303H76.6601V45.9973Z" fill="white"/>
<path d="M80.4921 45.9973H76.6592V49.8303H80.4921V45.9973Z" fill="white"/>
<path d="M88.1591 45.9973H84.3262V49.8303H88.1591V45.9973Z" fill="white"/>
<path d="M99.6572 45.9973H95.8242V49.8303H99.6572V45.9973Z" fill="white"/>
<path d="M107.323 45.9973H103.49V49.8303H107.323V45.9973Z" fill="white"/>
<path d="M111.157 45.9973H107.324V49.8303H111.157V45.9973Z" fill="white"/>
<path d="M7.665 49.8313H3.83203V53.6643H7.665V49.8313Z" fill="white"/>
<path d="M11.498 49.8313H7.66504V53.6643H11.498V49.8313Z" fill="white"/>
<path d="M15.332 49.8313H11.499V53.6643H15.332V49.8313Z" fill="white"/>
<path d="M22.997 49.8313H19.1641V53.6643H22.997V49.8313Z" fill="white"/>
<path d="M38.331 49.8313H34.498V53.6643H38.331V49.8313Z" fill="white"/>
<path d="M45.9951 49.8313H42.1621V53.6643H45.9951V49.8313Z" fill="white"/>
<path d="M61.3281 49.8313H57.4951V53.6643H61.3281V49.8313Z" fill="white"/>
<path d="M68.9936 49.8313H65.1606V53.6643H68.9936V49.8313Z" fill="white"/>
<path d="M72.8271 49.8313H68.9941V53.6643H72.8271V49.8313Z" fill="white"/>
<path d="M76.6601 49.8313H72.8271V53.6643H76.6601V49.8313Z" fill="white"/>
<path d="M80.4912 49.8313H76.6582V53.6643H80.4912V49.8313Z" fill="white"/>
<path d="M84.3247 49.8313H80.4917V53.6643H84.3247V49.8313Z" fill="white"/>
<path d="M22.998 53.6633H19.165V57.4963H22.998V53.6633Z" fill="white"/>
<path d="M26.831 53.6633H22.998V57.4963H26.831V53.6633Z" fill="white"/>
<path d="M38.33 53.6633H34.4971V57.4963H38.33V53.6633Z" fill="white"/>
<path d="M49.8295 53.6633H45.9966V57.4963H49.8295V53.6633Z" fill="white"/>
<path d="M61.3281 53.6633H57.4951V57.4963H61.3281V53.6633Z" fill="white"/>
<path d="M65.1606 53.6633H61.3276V57.4963H65.1606V53.6633Z" fill="white"/>
<path d="M72.8271 53.6633H68.9941V57.4963H72.8271V53.6633Z" fill="white"/>
<path d="M80.4921 53.6633H76.6592V57.4963H80.4921V53.6633Z" fill="white"/>
<path d="M95.8242 53.6633H91.9912V57.4963H95.8242V53.6633Z" fill="white"/>
<path d="M99.6572 53.6633H95.8242V57.4963H99.6572V53.6633Z" fill="white"/>
<path d="M103.49 53.6633H99.6572V57.4963H103.49V53.6633Z" fill="white"/>
<path d="M107.323 53.6633H103.49V57.4963H107.323V53.6633Z" fill="white"/>
<path d="M111.157 53.6633H107.324V57.4963H111.157V53.6633Z" fill="white"/>
<path d="M3.83297 57.4954H0L0 61.3283H3.83297V57.4954Z" fill="white"/>
<path d="M11.499 57.4954H7.66602V61.3283H11.499V57.4954Z" fill="white"/>
<path d="M19.165 57.4954H15.332V61.3283H19.165V57.4954Z" fill="white"/>
<path d="M30.663 57.4954H26.8301V61.3283H30.663V57.4954Z" fill="white"/>
<path d="M34.498 57.4954H30.665V61.3283H34.498V57.4954Z" fill="white"/>
<path d="M45.9965 57.4954H42.1636V61.3283H45.9965V57.4954Z" fill="white"/>
<path d="M49.8295 57.4954H45.9966V61.3283H49.8295V57.4954Z" fill="white"/>
<path d="M53.6621 57.4954H49.8291V61.3283H53.6621V57.4954Z" fill="white"/>
<path d="M57.4951 57.4954H53.6621V61.3283H57.4951V57.4954Z" fill="white"/>
<path d="M65.1606 57.4954H61.3276V61.3283H65.1606V57.4954Z" fill="white"/>
<path d="M68.9951 57.4954H65.1621V61.3283H68.9951V57.4954Z" fill="white"/>
<path d="M76.6601 57.4954H72.8271V61.3283H76.6601V57.4954Z" fill="white"/>
<path d="M88.1591 57.4954H84.3262V61.3283H88.1591V57.4954Z" fill="white"/>
<path d="M95.8242 57.4954H91.9912V61.3283H95.8242V57.4954Z" fill="white"/>
<path d="M99.6572 57.4954H95.8242V61.3283H99.6572V57.4954Z" fill="white"/>
<path d="M107.323 57.4954H103.49V61.3283H107.323V57.4954Z" fill="white"/>
<path d="M3.83297 61.3333H0L0 65.1662H3.83297V61.3333Z" fill="white"/>
<path d="M7.665 61.3333H3.83203V65.1662H7.665V61.3333Z" fill="white"/>
<path d="M11.499 61.3333H7.66602V65.1662H11.499V61.3333Z" fill="white"/>
<path d="M15.331 61.3333H11.498V65.1662H15.331V61.3333Z" fill="white"/>
<path d="M19.165 61.3333H15.332V65.1662H19.165V61.3333Z" fill="white"/>
<path d="M26.831 61.3333H22.998V65.1662H26.831V61.3333Z" fill="white"/>
<path d="M38.33 61.3333H34.4971V65.1662H38.33V61.3333Z" fill="white"/>
<path d="M42.1621 61.3333H38.3291V65.1662H42.1621V61.3333Z" fill="white"/>
<path d="M45.9965 61.3333H42.1636V65.1662H45.9965V61.3333Z" fill="white"/>
<path d="M53.6621 61.3333H49.8291V65.1662H53.6621V61.3333Z" fill="white"/>
<path d="M57.4951 61.3333H53.6621V65.1662H57.4951V61.3333Z" fill="white"/>
<path d="M61.3281 61.3333H57.4951V65.1662H61.3281V61.3333Z" fill="white"/>
<path d="M65.1606 61.3333H61.3276V65.1662H65.1606V61.3333Z" fill="white"/>
<path d="M76.6601 61.3333H72.8271V65.1662H76.6601V61.3333Z" fill="white"/>
<path d="M107.323 61.3333H103.49V65.1662H107.323V61.3333Z" fill="white"/>
<path d="M7.665 65.1653H3.83203V68.9982H7.665V65.1653Z" fill="white"/>
<path d="M11.499 65.1653H7.66602V68.9982H11.499V65.1653Z" fill="white"/>
<path d="M19.165 65.1653H15.332V68.9982H19.165V65.1653Z" fill="white"/>
<path d="M30.663 65.1653H26.8301V68.9982H30.663V65.1653Z" fill="white"/>
<path d="M34.498 65.1653H30.665V68.9982H34.498V65.1653Z" fill="white"/>
<path d="M61.3281 65.1653H57.4951V68.9982H61.3281V65.1653Z" fill="white"/>
<path d="M68.9951 65.1653H65.1621V68.9982H68.9951V65.1653Z" fill="white"/>
<path d="M76.6601 65.1653H72.8271V68.9982H76.6601V65.1653Z" fill="white"/>
<path d="M88.1591 65.1653H84.3262V68.9982H88.1591V65.1653Z" fill="white"/>
<path d="M91.9921 65.1653H88.1592V68.9982H91.9921V65.1653Z" fill="white"/>
<path d="M99.6572 65.1653H95.8242V68.9982H99.6572V65.1653Z" fill="white"/>
<path d="M111.157 65.1653H107.324V68.9982H111.157V65.1653Z" fill="white"/>
<path d="M3.83297 68.9993H0L0 72.8322H3.83297V68.9993Z" fill="white"/>
<path d="M19.165 68.9993H15.332V72.8322H19.165V68.9993Z" fill="white"/>
<path d="M22.998 68.9993H19.165V72.8322H22.998V68.9993Z" fill="white"/>
<path d="M26.831 68.9993H22.998V72.8322H26.831V68.9993Z" fill="white"/>
<path d="M30.663 68.9993H26.8301V72.8322H30.663V68.9993Z" fill="white"/>
<path d="M38.33 68.9993H34.4971V72.8322H38.33V68.9993Z" fill="white"/>
<path d="M45.9965 68.9993H42.1636V72.8322H45.9965V68.9993Z" fill="white"/>
<path d="M53.6621 68.9993H49.8291V72.8322H53.6621V68.9993Z" fill="white"/>
<path d="M80.4921 68.9993H76.6592V72.8322H80.4921V68.9993Z" fill="white"/>
<path d="M84.3247 68.9993H80.4917V72.8322H84.3247V68.9993Z" fill="white"/>
<path d="M88.1591 68.9993H84.3262V72.8322H88.1591V68.9993Z" fill="white"/>
<path d="M107.323 68.9993H103.49V72.8322H107.323V68.9993Z" fill="white"/>
<path d="M111.157 68.9993H107.324V72.8322H111.157V68.9993Z" fill="white"/>
<path d="M11.4995 72.8313H7.6665V76.6643H11.4995V72.8313Z" fill="white"/>
<path d="M15.3305 72.8313H11.4976V76.6643H15.3305V72.8313Z" fill="white"/>
<path d="M19.165 72.8313H15.332V76.6643H19.165V72.8313Z" fill="white"/>
<path d="M38.33 72.8313H34.4971V76.6643H38.33V72.8313Z" fill="white"/>
<path d="M42.1621 72.8313H38.3291V76.6643H42.1621V72.8313Z" fill="white"/>
<path d="M45.9961 72.8313H42.1631V76.6643H45.9961V72.8313Z" fill="white"/>
<path d="M53.6621 72.8313H49.8291V76.6643H53.6621V72.8313Z" fill="white"/>
<path d="M61.3281 72.8313H57.4951V76.6643H61.3281V72.8313Z" fill="white"/>
<path d="M65.1601 72.8313H61.3271V76.6643H65.1601V72.8313Z" fill="white"/>
<path d="M68.9946 72.8313H65.1616V76.6643H68.9946V72.8313Z" fill="white"/>
<path d="M72.8271 72.8313H68.9941V76.6643H72.8271V72.8313Z" fill="white"/>
<path d="M76.6601 72.8313H72.8271V76.6643H76.6601V72.8313Z" fill="white"/>
<path d="M80.4921 72.8313H76.6592V76.6643H80.4921V72.8313Z" fill="white"/>
<path d="M95.8242 72.8313H91.9912V76.6643H95.8242V72.8313Z" fill="white"/>
<path d="M107.323 72.8313H103.49V76.6643H107.323V72.8313Z" fill="white"/>
<path d="M111.157 72.8313H107.324V76.6643H111.157V72.8313Z" fill="white"/>
<path d="M3.83297 76.6633H0L0 80.4963H3.83297V76.6633Z" fill="white"/>
<path d="M11.4995 76.6633H7.6665V80.4963H11.4995V76.6633Z" fill="white"/>
<path d="M22.998 76.6633H19.165V80.4963H22.998V76.6633Z" fill="white"/>
<path d="M26.831 76.6633H22.998V80.4963H26.831V76.6633Z" fill="white"/>
<path d="M34.498 76.6633H30.665V80.4963H34.498V76.6633Z" fill="white"/>
<path d="M42.1621 76.6633H38.3291V80.4963H42.1621V76.6633Z" fill="white"/>
<path d="M45.9961 76.6633H42.1631V80.4963H45.9961V76.6633Z" fill="white"/>
<path d="M57.4951 76.6633H53.6621V80.4963H57.4951V76.6633Z" fill="white"/>
<path d="M65.1601 76.6633H61.3271V80.4963H65.1601V76.6633Z" fill="white"/>
<path d="M68.9946 76.6633H65.1616V80.4963H68.9946V76.6633Z" fill="white"/>
<path d="M76.6601 76.6633H72.8271V80.4963H76.6601V76.6633Z" fill="white"/>
<path d="M80.4921 76.6633H76.6592V80.4963H80.4921V76.6633Z" fill="white"/>
<path d="M84.3242 76.6633H80.4912V80.4963H84.3242V76.6633Z" fill="white"/>
<path d="M88.1587 76.6633H84.3257V80.4963H88.1587V76.6633Z" fill="white"/>
<path d="M91.9921 76.6633H88.1592V80.4963H91.9921V76.6633Z" fill="white"/>
<path d="M95.8242 76.6633H91.9912V80.4963H95.8242V76.6633Z" fill="white"/>
<path d="M103.491 76.6633H99.6577V80.4963H103.491V76.6633Z" fill="white"/>
<path d="M34.498 80.4954H30.665V84.3283H34.498V80.4954Z" fill="white"/>
<path d="M45.9961 80.4954H42.1631V84.3283H45.9961V80.4954Z" fill="white"/>
<path d="M49.8295 80.4954H45.9966V84.3283H49.8295V80.4954Z" fill="white"/>
<path d="M53.6621 80.4954H49.8291V84.3283H53.6621V80.4954Z" fill="white"/>
<path d="M61.3281 80.4954H57.4951V84.3283H61.3281V80.4954Z" fill="white"/>
<path d="M65.1601 80.4954H61.3271V84.3283H65.1601V80.4954Z" fill="white"/>
<path d="M68.9946 80.4954H65.1616V84.3283H68.9946V80.4954Z" fill="white"/>
<path d="M72.8271 80.4954H68.9941V84.3283H72.8271V80.4954Z" fill="white"/>
<path d="M76.6601 80.4954H72.8271V84.3283H76.6601V80.4954Z" fill="white"/>
<path d="M80.4921 80.4954H76.6592V84.3283H80.4921V80.4954Z" fill="white"/>
<path d="M95.8242 80.4954H91.9912V84.3283H95.8242V80.4954Z" fill="white"/>
<path d="M103.491 80.4954H99.6577V84.3283H103.491V80.4954Z" fill="white"/>
<path d="M107.323 80.4954H103.49V84.3283H107.323V80.4954Z" fill="white"/>
<path d="M111.157 80.4954H107.324V84.3283H111.157V80.4954Z" fill="white"/>
<path d="M38.33 84.3293H34.4971V88.1623H38.33V84.3293Z" fill="white"/>
<path d="M49.8295 84.3293H45.9966V88.1623H49.8295V84.3293Z" fill="white"/>
<path d="M53.6621 84.3293H49.8291V88.1623H53.6621V84.3293Z" fill="white"/>
<path d="M57.4951 84.3293H53.6621V88.1623H57.4951V84.3293Z" fill="white"/>
<path d="M61.3281 84.3293H57.4951V88.1623H61.3281V84.3293Z" fill="white"/>
<path d="M76.6601 84.3293H72.8271V88.1623H76.6601V84.3293Z" fill="white"/>
<path d="M80.4921 84.3293H76.6592V88.1623H80.4921V84.3293Z" fill="white"/>
<path d="M88.1591 84.3293H84.3262V88.1623H88.1591V84.3293Z" fill="white"/>
<path d="M95.8242 84.3293H91.9912V88.1623H95.8242V84.3293Z" fill="white"/>
<path d="M107.323 84.3293H103.49V88.1623H107.323V84.3293Z" fill="white"/>
<path d="M34.498 88.1614H30.665V91.9943H34.498V88.1614Z" fill="white"/>
<path d="M38.33 88.1614H34.4971V91.9943H38.33V88.1614Z" fill="white"/>
<path d="M42.1621 88.1614H38.3291V91.9943H42.1621V88.1614Z" fill="white"/>
<path d="M45.9965 88.1614H42.1636V91.9943H45.9965V88.1614Z" fill="white"/>
<path d="M49.8295 88.1614H45.9966V91.9943H49.8295V88.1614Z" fill="white"/>
<path d="M53.6621 88.1614H49.8291V91.9943H53.6621V88.1614Z" fill="white"/>
<path d="M65.1606 88.1614H61.3276V91.9943H65.1606V88.1614Z" fill="white"/>
<path d="M80.4921 88.1614H76.6592V91.9943H80.4921V88.1614Z" fill="white"/>
<path d="M95.8242 88.1614H91.9912V91.9943H95.8242V88.1614Z" fill="white"/>
<path d="M99.6572 88.1614H95.8242V91.9943H99.6572V88.1614Z" fill="white"/>
<path d="M103.49 88.1614H99.6572V91.9943H103.49V88.1614Z" fill="white"/>
<path d="M107.323 88.1614H103.49V91.9943H107.323V88.1614Z" fill="white"/>
<path d="M111.157 88.1614H107.324V91.9943H111.157V88.1614Z" fill="white"/>
<path d="M38.33 91.9934H34.4971V95.8264H38.33V91.9934Z" fill="white"/>
<path d="M42.1621 91.9934H38.3291V95.8264H42.1621V91.9934Z" fill="white"/>
<path d="M45.9965 91.9934H42.1636V95.8264H45.9965V91.9934Z" fill="white"/>
<path d="M49.8295 91.9934H45.9966V95.8264H49.8295V91.9934Z" fill="white"/>
<path d="M57.4951 91.9934H53.6621V95.8264H57.4951V91.9934Z" fill="white"/>
<path d="M61.3281 91.9934H57.4951V95.8264H61.3281V91.9934Z" fill="white"/>
<path d="M65.1606 91.9934H61.3276V95.8264H65.1606V91.9934Z" fill="white"/>
<path d="M80.4921 91.9934H76.6592V95.8264H80.4921V91.9934Z" fill="white"/>
<path d="M84.3247 91.9934H80.4917V95.8264H84.3247V91.9934Z" fill="white"/>
<path d="M88.1591 91.9934H84.3262V95.8264H88.1591V91.9934Z" fill="white"/>
<path d="M91.9921 91.9934H88.1592V95.8264H91.9921V91.9934Z" fill="white"/>
<path d="M95.8242 91.9934H91.9912V95.8264H95.8242V91.9934Z" fill="white"/>
<path d="M107.323 91.9934H103.49V95.8264H107.323V91.9934Z" fill="white"/>
<path d="M34.498 95.8254H30.665V99.6584H34.498V95.8254Z" fill="white"/>
<path d="M38.33 95.8254H34.4971V99.6584H38.33V95.8254Z" fill="white"/>
<path d="M42.1621 95.8254H38.3291V99.6584H42.1621V95.8254Z" fill="white"/>
<path d="M45.9965 95.8254H42.1636V99.6584H45.9965V95.8254Z" fill="white"/>
<path d="M57.4951 95.8254H53.6621V99.6584H57.4951V95.8254Z" fill="white"/>
<path d="M61.3281 95.8254H57.4951V99.6584H61.3281V95.8254Z" fill="white"/>
<path d="M65.1606 95.8254H61.3276V99.6584H65.1606V95.8254Z" fill="white"/>
<path d="M68.9951 95.8254H65.1621V99.6584H68.9951V95.8254Z" fill="white"/>
<path d="M76.6601 95.8254H72.8271V99.6584H76.6601V95.8254Z" fill="white"/>
<path d="M80.4921 95.8254H76.6592V99.6584H80.4921V95.8254Z" fill="white"/>
<path d="M88.1591 95.8254H84.3262V99.6584H88.1591V95.8254Z" fill="white"/>
<path d="M91.9921 95.8254H88.1592V99.6584H91.9921V95.8254Z" fill="white"/>
<path d="M95.8242 95.8254H91.9912V99.6584H95.8242V95.8254Z" fill="white"/>
<path d="M99.6572 95.8254H95.8242V99.6584H99.6572V95.8254Z" fill="white"/>
<path d="M103.49 95.8254H99.6572V99.6584H103.49V95.8254Z" fill="white"/>
<path d="M111.157 95.8254H107.324V99.6584H111.157V95.8254Z" fill="white"/>
<path d="M49.8295 99.6633H45.9966V103.496H49.8295V99.6633Z" fill="white"/>
<path d="M57.4951 99.6633H53.6621V103.496H57.4951V99.6633Z" fill="white"/>
<path d="M80.4921 99.6633H76.6592V103.496H80.4921V99.6633Z" fill="white"/>
<path d="M91.9921 99.6633H88.1592V103.496H91.9921V99.6633Z" fill="white"/>
<path d="M95.8242 99.6633H91.9912V103.496H95.8242V99.6633Z" fill="white"/>
<path d="M99.6572 99.6633H95.8242V103.496H99.6572V99.6633Z" fill="white"/>
<path d="M103.49 99.6633H99.6572V103.496H103.49V99.6633Z" fill="white"/>
<path d="M111.157 99.6633H107.324V103.496H111.157V99.6633Z" fill="white"/>
<path d="M45.9965 103.495H42.1636V107.328H45.9965V103.495Z" fill="white"/>
<path d="M49.8295 103.495H45.9966V107.328H49.8295V103.495Z" fill="white"/>
<path d="M57.4951 103.495H53.6621V107.328H57.4951V103.495Z" fill="white"/>
<path d="M61.3281 103.495H57.4951V107.328H61.3281V103.495Z" fill="white"/>
<path d="M68.9951 103.495H65.1621V107.328H68.9951V103.495Z" fill="white"/>
<path d="M76.6601 103.495H72.8271V107.328H76.6601V103.495Z" fill="white"/>
<path d="M88.1591 103.495H84.3262V107.328H88.1591V103.495Z" fill="white"/>
<path d="M91.9921 103.495H88.1592V107.328H91.9921V103.495Z" fill="white"/>
<path d="M107.323 103.495H103.49V107.328H107.323V103.495Z" fill="white"/>
<path d="M34.498 107.329H30.665V111.162H34.498V107.329Z" fill="white"/>
<path d="M38.33 107.329H34.4971V111.162H38.33V107.329Z" fill="white"/>
<path d="M53.6621 107.329H49.8291V111.162H53.6621V107.329Z" fill="white"/>
<path d="M61.3281 107.329H57.4951V111.162H61.3281V107.329Z" fill="white"/>
<path d="M68.9946 107.329H65.1616V111.162H68.9946V107.329Z" fill="white"/>
<path d="M80.4921 107.329H76.6592V111.162H80.4921V107.329Z" fill="white"/>
<path d="M91.9921 107.329H88.1592V111.162H91.9921V107.329Z" fill="white"/>
<path d="M95.8242 107.329H91.9912V111.162H95.8242V107.329Z" fill="white"/>
<path d="M107.323 107.329H103.49V111.162H107.323V107.329Z" fill="white"/>
<path d="M22.8062 84.3242H4.02461H0V88.3488V107.13V111.155H4.02461H22.8062H26.8308V107.13V88.3488V84.3242H22.8062ZM22.8062 107.13H4.02461V88.3488H22.8062V107.13Z" fill="white"/>
<path d="M107.132 0L88.3503 0L84.3257 0V4.02461V22.8062V26.8308H88.3503H107.132H111.156V22.8062V4.02461V0L107.132 0ZM107.132 22.8062H88.3503V4.02461H107.132V22.8062Z" fill="white"/>
<path d="M22.8062 0L4.02461 0L0 0V4.02461V22.8062V26.8308H4.02461H22.8062H26.8308V22.8062V4.02461V0L22.8062 0ZM22.8062 22.8062H4.02461V4.02461H22.8062V22.8062Z" fill="white"/>
<path d="M19.1654 7.66919H7.6665V19.1681H19.1654V7.66919Z" fill="white"/>
<path d="M103.489 7.66919H91.9902V19.1681H103.489V7.66919Z" fill="white"/>
<path d="M19.1654 91.9934H7.6665V103.492H19.1654V91.9934Z" fill="white"/>
</svg>
